<svg width="623" height="285" viewBox="0 0 623 285" fill="none" xmlns="http://www.w3.org/2000/svg">
<rect x="187.668" y="257" width="45.7754" height="25" fill="#0078FE"/>
<rect x="337.428" y="257" width="131.703" height="25" fill="#0078FE"/>
<path d="M111.664 23.49C111.664 14.46 118.804 10.4 122.864 9.7V14.25C120.064 15.16 117.404 17.4 116.914 20.55C118.944 20.27 121.114 20.2 122.864 20.2V31.4H111.664V23.49ZM125.664 31.4V23.49C125.664 14.46 132.804 10.4 136.864 9.7V14.25C134.064 15.16 131.404 17.4 130.914 20.55C132.944 20.27 135.114 20.2 136.864 20.2V31.4H125.664ZM318.153 73.68V12.5H327.253V24.54H333.903V32.94H327.253V48.34H333.903V56.74H327.253V73.68H318.153ZM275.453 55.48V30C275.453 20.34 282.873 13.2 292.253 13.2C301.633 13.2 309.053 20.34 309.053 30V55.48C309.053 65.14 301.633 72.28 292.253 72.28C282.873 72.28 275.453 65.14 275.453 55.48ZM284.273 55.48C284.273 60.38 287.773 64.16 292.253 64.16C296.733 64.16 300.233 60.38 300.233 55.48V30C300.233 25.1 296.733 21.32 292.253 21.32C287.773 21.32 284.273 25.1 284.273 30V55.48ZM358.747 51.84H367.847V66.05C382.407 65.7 396.477 64.79 409.847 62.41V70.53C393.677 73.4 376.527 74.1 358.747 74.38V51.84ZM356.647 30.42C356.647 20.34 364.627 13.2 374.497 13.2C384.367 13.2 392.347 20.34 392.347 30.42C392.347 40.5 384.367 47.64 374.497 47.64C364.627 47.64 356.647 40.5 356.647 30.42ZM365.467 30.42C365.467 36.16 369.387 39.8 374.497 39.8C379.607 39.8 383.527 36.16 383.527 30.42C383.527 24.68 379.607 21.04 374.497 21.04C369.387 21.04 365.467 24.68 365.467 30.42ZM400.047 56.04V12.5H409.147V28.25H416.147V36.65H409.147V56.04H400.047ZM465.842 48.06V34.76H449.742V27.2H465.842V24.68H449.742V17.12H465.842V12.5H474.942V48.06H465.842ZM422.442 45.96V13.9H431.542V38.05C440.852 37.84 451.142 37.35 459.542 36.44V44.14C448.272 45.33 433.572 45.82 422.442 45.96ZM423.142 61.92C423.142 55.41 428.392 50.16 434.902 50.16H463.882C470.392 50.16 475.642 55.41 475.642 61.92C475.642 68.43 470.392 73.68 463.882 73.68H434.902C428.392 73.68 423.142 68.43 423.142 61.92ZM431.962 61.92C431.962 64.09 433.572 65.84 435.742 65.84H463.042C465.212 65.84 466.822 64.09 466.822 61.92C466.822 59.75 465.212 58 463.042 58H435.742C433.572 58 431.962 59.75 431.962 61.92ZM497.336 20.41C497.336 29.44 490.196 33.5 486.136 34.2V29.65C488.936 28.74 491.596 26.5 492.086 23.35C490.056 23.63 487.886 23.7 486.136 23.7V12.5H497.336V20.41ZM500.136 34.2V29.65C502.936 28.74 505.596 26.5 506.086 23.35C504.056 23.63 501.886 23.7 500.136 23.7V12.5H511.336V20.41C511.336 29.44 504.196 33.5 500.136 34.2Z" fill="black"/>
<path d="M148.064 54.64H157.164V66.54C171.514 66.19 186.634 65.28 200.564 62.83V70.53C183.624 73.54 165.004 74.17 148.064 74.38V54.64ZM145.264 50.3V42.6H202.664V50.3H179.214V60.24H170.114V50.3H145.264ZM147.364 37.84V30C157.164 30 169.414 24.82 169.414 17.89V13.55H178.514V17.89C178.514 24.82 190.764 30 200.564 30V37.84C191.534 37.84 179.214 33.78 173.964 26.92C168.714 33.78 156.394 37.84 147.364 37.84ZM228.558 72.28C219.178 72.28 211.758 65.14 211.758 55.48V30C211.758 20.34 219.178 13.2 228.558 13.2C237.938 13.2 245.358 20.34 245.358 30V55.48C245.358 65.14 237.938 72.28 228.558 72.28ZM220.578 55.48C220.578 60.38 224.078 64.16 228.558 64.16C233.038 64.16 236.538 60.38 236.538 55.48V30C236.538 25.1 233.038 21.32 228.558 21.32C224.078 21.32 220.578 25.1 220.578 30V55.48ZM255.158 73.68V12.5H264.258V73.68H255.158Z" fill="#0078FE"/>
<path d="M311.5 127.188C303.044 127.188 296.188 134.044 296.188 142.5C296.188 150.956 303.044 157.812 311.5 157.812C319.956 157.812 326.812 150.956 326.812 142.5C326.812 134.044 319.956 127.188 311.5 127.188ZM317.806 139.277L311.722 147.685C311.697 147.72 311.664 147.748 311.626 147.768C311.587 147.788 311.545 147.798 311.502 147.798C311.459 147.798 311.416 147.788 311.378 147.768C311.34 147.748 311.306 147.72 311.281 147.685L305.197 139.277C305.067 139.096 305.197 138.843 305.419 138.843H307.022C307.371 138.843 307.703 139.01 307.908 139.294L311.5 144.264L315.096 139.294C315.301 139.01 315.629 138.843 315.981 138.843H317.584C317.806 138.843 317.936 139.096 317.806 139.277Z" fill="#A2A9B0"/>
<path d="M119.761 215.578L124.701 202.324H126.002L130.941 215.578H129.623L128.146 211.676H122.556L121.08 215.578H119.761ZM122.961 210.586H127.742L125.351 203.836L122.961 210.586ZM131.899 215.525V214.436H133.921V203.467H131.899V202.377H137.208V203.467H135.186V214.436H137.208V215.525H131.899ZM138.729 212.889C141.752 211.711 145.233 208.951 145.584 203.889H139.08V202.799H146.832C146.955 208.635 143.317 212.361 139.309 213.943L138.729 212.889ZM149.557 217.512V201.639H150.823V207.686H153.108V208.775H150.823V217.512H149.557ZM157.468 209.021C160.544 207.633 163.005 205.559 164.095 203.871H158.171V202.781H161.44V201.129H162.706V202.781H165.571V203.607C165.114 204.539 164.376 205.523 163.356 206.49C164.306 207.299 165.73 208.178 167.101 208.846L166.556 209.865C165.044 209.109 163.356 208.002 162.495 207.264C161.282 208.248 159.788 209.197 158.048 210.023L157.468 209.021ZM159.929 217.248V211.465H169.878V217.248H168.612V216.984H161.194V217.248H159.929ZM161.194 215.895H168.612V212.555H161.194V215.895ZM168.612 210.234V201.639H169.878V205.137H172.163V206.227H169.878V210.234H168.612ZM180.03 206.262C180.03 204.416 179.327 203.291 177.639 203.291C175.952 203.291 175.248 204.416 175.248 206.262V210.023C175.248 211.869 175.952 212.994 177.639 212.994C179.327 212.994 180.03 211.869 180.03 210.023V206.262ZM173.983 210.164V206.121C173.983 203.66 175.371 202.201 177.639 202.201C179.907 202.201 181.295 203.66 181.295 206.121V210.164C181.295 212.625 179.907 214.084 177.639 214.084C175.371 214.084 173.983 212.625 173.983 210.164ZM182.227 210.99V209.9H185.039V206.174H182.227V205.084H185.039V201.639H186.305V217.512H185.039V210.99H182.227ZM188.371 212.994C191.658 210.797 194.347 207.299 195.174 203.889H189.092V202.799H196.492V203.607C196.105 205.242 195.472 206.771 194.611 208.213C195.42 209.76 196.931 211.693 198.496 212.924L197.705 213.82C195.982 212.379 194.629 210.621 193.908 209.285C192.695 210.99 191.095 212.537 189.144 213.926L188.371 212.994ZM199.533 217.512V201.639H200.799V207.686H203.084V208.775H200.799V217.512H199.533ZM206.151 207.07C206.151 208.635 207.013 209.777 208.999 209.777C210.985 209.777 211.847 208.635 211.847 207.07V206.455C211.847 204.891 210.985 203.748 208.999 203.748C207.013 203.748 206.151 204.891 206.151 206.455V207.07ZM203.743 215.174V214.084H214.659V215.174H203.743ZM204.886 207.176V206.35C204.886 204.135 206.503 202.658 208.999 202.658C211.495 202.658 213.112 204.135 213.112 206.35V207.176C213.112 209.391 211.495 210.867 208.999 210.867C206.503 210.867 204.886 209.391 204.886 207.176ZM215.96 217.512V201.639H217.226V217.512H215.96ZM224.644 207.404V202.025H235.437V207.404H230.674V209.303H237.283V210.393H222.799V209.303H229.408V207.404H224.644ZM224.609 213.363V212.273H235.402V217.248H234.137V213.363H224.609ZM225.91 206.314H234.172V203.115H225.91V206.314ZM238.98 210.393C241.529 209.373 244.886 207.035 244.886 203.66V202.605H246.152V203.73C246.152 204.188 246.099 204.609 245.993 205.031C246.872 206.965 249.456 209.25 251.97 210.305L251.443 211.359C248.876 210.164 246.591 208.266 245.484 206.438C244.271 208.811 241.652 210.551 239.56 211.43L238.98 210.393ZM238.259 215.613V214.523H244.868V210.375H246.134V214.523H252.743V215.613H238.259ZM254.862 213.592V207.58H260.961V203.783H254.792V202.693H262.227V208.67H256.127V212.502H263.106V213.592H254.862ZM265.936 217.512V201.639H267.202V217.512H265.936ZM283.664 208.793V209.883H269.18V208.793H283.664ZM270.955 202.939V201.85H281.783V205.172H272.291V206.314H282.135V207.404H271.025V204.082H280.517V202.939H270.955ZM270.973 212.361V211.271H281.801V214.717H272.309V215.982H282.152V217.072H272.309V217.248H271.043V213.627H280.535V212.361H270.973ZM301.067 207.123H290.081V202.025H300.874V203.115H291.346V206.033H301.067V207.123ZM288.235 210.164V209.074H302.719V210.164H288.235ZM290.098 217.248V212.098H300.786V213.188H291.364V215.895H301.014V216.984H291.364V217.248H290.098ZM314.436 211.781C314.893 209.514 314.98 206.754 314.98 204.064H305.26V202.975H316.246C316.246 206.016 316.246 209.109 315.648 211.975L314.436 211.781ZM303.695 215.613V214.523H309.479V208.178H310.744V214.523H318.18V215.613H303.695ZM328.147 203.01C326.565 203.01 325.616 203.379 325.616 204.592C325.616 205.805 326.565 206.174 328.147 206.174H331.839C333.421 206.174 334.37 205.805 334.37 204.592C334.37 203.379 333.421 203.01 331.839 203.01H328.147ZM322.751 210.129V209.039H337.235V210.129H322.751ZM324.35 204.592C324.35 202.922 325.598 201.955 328.007 201.955H331.979C334.387 201.955 335.635 202.922 335.635 204.592C335.635 206.262 334.387 207.229 331.979 207.229H328.007C325.598 207.229 324.35 206.262 324.35 204.592ZM324.614 217.248V212.098H335.354V217.248H334.089V216.984H325.88V217.248H324.614ZM325.88 215.895H334.089V213.188H325.88V215.895ZM338.211 208.881C340.057 207.896 342.606 205.98 342.606 202.869V202.008H343.871V202.975C343.871 203.273 343.854 203.555 343.801 203.836C344.311 205.893 346.367 207.914 347.984 208.775L347.281 209.76C345.682 208.758 344.012 207.229 343.256 205.559C342.307 207.527 340.443 209.021 338.914 209.848L338.211 208.881ZM340.76 214.348C340.76 212.432 342.289 211.359 343.871 211.359H348.881C350.463 211.359 351.992 212.432 351.992 214.348C351.992 216.229 350.516 217.318 348.881 217.318H343.871C342.236 217.318 340.76 216.229 340.76 214.348ZM342.025 214.348C342.025 215.543 342.764 216.229 344.135 216.229H348.617C349.988 216.229 350.727 215.543 350.727 214.348C350.727 213.17 349.971 212.449 348.617 212.449H344.135C342.781 212.449 342.025 213.17 342.025 214.348ZM346.912 205.559V204.469H350.428V201.639H351.693V210.674H350.428V205.559H346.912ZM359.675 205.752C359.675 206.859 360.413 207.949 362.171 207.949C363.929 207.949 364.667 206.859 364.667 205.752V205.277C364.667 204.17 363.929 203.08 362.171 203.08C360.413 203.08 359.675 204.17 359.675 205.277V205.752ZM358.409 205.893V205.137C358.409 203.396 359.903 201.99 362.171 201.99C364.438 201.99 365.932 203.396 365.932 205.137V205.893C365.932 207.633 364.438 209.039 362.171 209.039C359.903 209.039 358.409 207.633 358.409 205.893ZM360.29 211.852V210.762H370.749V214.453H361.626V215.982H371.1V217.072H361.626V217.248H360.36V213.363H369.483V211.852H360.29ZM369.483 209.531V201.639H370.749V209.531H369.483ZM373.043 213.17C376.365 210.814 379.02 207.422 379.969 204.715H373.711V203.625H376.893V201.568H378.158V203.625H381.34V204.504C380.848 205.893 380.162 207.264 379.231 208.6C379.951 210.041 381.498 211.975 382.817 213.117L381.99 213.979C380.531 212.66 379.178 210.92 378.44 209.654C377.244 211.184 375.715 212.66 373.834 214.066L373.043 213.17ZM384.944 217.512V201.639H386.209V217.512H384.944ZM393.32 202.922C391.738 202.922 391.052 203.291 391.052 204.188C391.052 205.084 391.738 205.453 393.32 205.453H397.539C399.121 205.453 399.806 205.084 399.806 204.188C399.806 203.291 399.121 202.922 397.539 202.922H393.32ZM388.187 209.145V208.055H402.671V209.145H398.839V210.92H400.808V214.506H391.316V215.982H401.16V217.072H391.316V217.248H390.05V213.451H399.542V212.01H389.98V210.92H392.019V209.145H388.187ZM389.787 204.188C389.787 202.834 390.771 201.867 393.179 201.867H397.679C400.087 201.867 401.072 202.834 401.072 204.188C401.072 205.541 400.087 206.508 397.679 206.508H393.179C390.771 206.508 389.787 205.541 389.787 204.188ZM393.355 210.92H397.503V209.145H393.355V210.92ZM408.78 202.922C407.198 202.922 406.513 203.379 406.513 204.346C406.513 205.312 407.198 205.77 408.78 205.77H412.999C414.581 205.77 415.266 205.312 415.266 204.346C415.266 203.379 414.581 202.922 412.999 202.922H408.78ZM403.647 209.303V208.213H418.132V209.303H403.647ZM405.247 204.346C405.247 202.922 406.231 201.867 408.64 201.867H413.14C415.548 201.867 416.532 202.922 416.532 204.346C416.532 205.77 415.548 206.824 413.14 206.824H408.64C406.231 206.824 405.247 205.77 405.247 204.346ZM405.44 212.01V210.92H416.268V214.506H406.776V215.982H416.62V217.072H406.776V217.248H405.511V213.451H415.003V212.01H405.44ZM435.341 201.938V207.861H424.548V201.938H425.814V203.871H434.076V201.938H435.341ZM422.703 210.832V209.742H437.187V210.832H430.754V214.207H429.488V210.832H422.703ZM424.513 217.248V212.748H425.779V215.895H435.728V216.984H425.779V217.248H424.513ZM425.814 206.771H434.076V204.961H425.814V206.771ZM450.38 212.643H441.028V211.553H451.645V217.248H450.38V212.643ZM438.163 208.969C440.009 207.984 442.558 205.98 442.558 202.869V202.008H443.823V202.975C443.823 203.256 443.806 203.555 443.753 203.836C444.263 205.893 446.407 208.002 448.024 208.863L447.321 209.848C445.704 208.846 443.981 207.246 443.226 205.559C442.276 207.545 440.395 209.109 438.866 209.936L438.163 208.969ZM446.864 205.699V204.609H450.38V201.639H451.645V210.322H450.38V205.699H446.864ZM462.992 204.029H453.869V202.939H457.772V201.252H459.037V202.939H462.992V204.029ZM454.52 207.738C454.52 206.068 455.979 205.049 457.596 205.049H459.284C460.883 205.049 462.36 205.98 462.36 207.738C462.36 209.408 460.866 210.428 459.284 210.428H457.596C455.979 210.428 454.52 209.408 454.52 207.738ZM455.785 207.738C455.785 208.934 456.752 209.338 457.877 209.338H459.002C460.092 209.338 461.094 208.916 461.094 207.738C461.094 206.578 460.092 206.139 459.002 206.139H457.877C456.787 206.139 455.785 206.578 455.785 207.738ZM456.19 217.248V211.816H457.455V213.293H464.873V211.816H466.139V217.248H464.873V216.984H457.455V217.248H456.19ZM457.455 215.895H464.873V214.383H457.455V215.895ZM464.873 210.586V201.639H466.139V205.488H468.424V206.578H466.139V210.586H464.873ZM470.367 213.398V202.623H471.633V212.309H478.629V213.398H470.367ZM481.3 217.512V201.639H482.566V217.512H481.3ZM485.511 213.504V202.799H493.245V203.889H486.776V212.414H493.685V213.504H485.511ZM495.794 217.512V201.639H497.06V207.686H499.345V208.775H497.06V217.512H495.794ZM501.534 215.701C501.041 215.701 500.655 215.297 500.655 214.805C500.655 214.312 501.041 213.908 501.534 213.908C502.061 213.908 502.448 214.312 502.448 214.805C502.448 215.297 502.061 215.701 501.534 215.701ZM173.759 235.752C173.759 236.859 174.497 237.949 176.255 237.949C178.012 237.949 178.751 236.859 178.751 235.752V235.277C178.751 234.17 178.012 233.08 176.255 233.08C174.497 233.08 173.759 234.17 173.759 235.277V235.752ZM172.493 235.893V235.137C172.493 233.396 173.987 231.99 176.255 231.99C178.522 231.99 180.016 233.396 180.016 235.137V235.893C180.016 237.633 178.522 239.039 176.255 239.039C173.987 239.039 172.493 237.633 172.493 235.893ZM174.374 241.852V240.762H184.833V244.453H175.71V245.982H185.184V247.072H175.71V247.248H174.444V243.363H183.567V241.852H174.374ZM183.567 239.531V231.639H184.833V239.531H183.567ZM187.127 243.17C190.449 240.814 193.104 237.422 194.053 234.715H187.795V233.625H190.977V231.568H192.242V233.625H195.424V234.504C194.932 235.893 194.246 237.264 193.315 238.6C194.035 240.041 195.582 241.975 196.9 243.117L196.074 243.979C194.615 242.66 193.262 240.92 192.524 239.654C191.328 241.184 189.799 242.66 187.918 244.066L187.127 243.17ZM199.027 247.512V231.639H200.293V247.512H199.027ZM207.404 232.922C205.822 232.922 205.136 233.291 205.136 234.188C205.136 235.084 205.822 235.453 207.404 235.453H211.622C213.205 235.453 213.89 235.084 213.89 234.188C213.89 233.291 213.205 232.922 211.622 232.922H207.404ZM202.271 239.145V238.055H216.755V239.145H212.923V240.92H214.892V244.506H205.4V245.982H215.244V247.072H205.4V247.248H204.134V243.451H213.626V242.01H204.064V240.92H206.103V239.145H202.271ZM203.871 234.188C203.871 232.834 204.855 231.867 207.263 231.867H211.763C214.171 231.867 215.156 232.834 215.156 234.188C215.156 235.541 214.171 236.508 211.763 236.508H207.263C204.855 236.508 203.871 235.541 203.871 234.188ZM207.439 240.92H211.587V239.145H207.439V240.92ZM225.114 236.262C225.114 234.416 224.411 233.291 222.636 233.291C220.86 233.291 220.157 234.416 220.157 236.262V240.023C220.157 241.869 220.86 242.994 222.636 242.994C224.411 242.994 225.114 241.869 225.114 240.023V236.262ZM218.891 240.164V236.121C218.891 233.66 220.28 232.201 222.636 232.201C224.991 232.201 226.38 233.66 226.38 236.121V240.164C226.38 242.625 224.991 244.084 222.636 244.084C220.28 244.084 218.891 242.625 218.891 240.164ZM229.948 247.512V231.639H231.214V247.512H229.948ZM238.632 237.123V231.955H239.898V236.033H249.794V237.123H244.662V239.127H251.271V240.217H236.787V239.127H243.396V237.123H238.632ZM238.175 246.984V245.895H240.548L240.425 243.205H238.386V242.115H249.654V243.205H247.58L247.492 245.895H249.865V246.984H238.175ZM241.673 243.205L241.744 245.895H246.261L246.367 243.205H241.673ZM257.38 232.922C255.798 232.922 255.112 233.379 255.112 234.346C255.112 235.312 255.798 235.77 257.38 235.77H261.599C263.181 235.77 263.866 235.312 263.866 234.346C263.866 233.379 263.181 232.922 261.599 232.922H257.38ZM252.247 239.303V238.213H266.731V239.303H252.247ZM253.847 234.346C253.847 232.922 254.831 231.867 257.239 231.867H261.739C264.147 231.867 265.132 232.922 265.132 234.346C265.132 235.77 264.147 236.824 261.739 236.824H257.239C254.831 236.824 253.847 235.77 253.847 234.346ZM254.04 242.01V240.92H264.868V244.506H255.376V245.982H265.22V247.072H255.376V247.248H254.11V243.451H263.602V242.01H254.04ZM272.023 238.459C274.572 237.633 277.929 235.4 277.929 232.641V231.902H279.195V232.693C279.195 233.01 279.16 233.326 279.089 233.643C279.986 235.541 282.5 237.352 284.996 238.371L284.486 239.426C281.937 238.336 279.652 236.736 278.562 234.961C277.349 237.088 274.695 238.793 272.568 239.496L272.023 238.459ZM271.302 242.537V241.447H285.787V242.537H279.177V247.512H277.912V242.537H271.302ZM288.626 238.248V234.539H298.118V233.01H288.556V231.92H299.384V235.629H289.892V237.158H299.735V238.248H294.638V239.936H301.247V241.025H286.763V239.936H293.372V238.248H288.626ZM288.573 243.715V242.625H299.366V247.248H298.101V243.715H288.573ZM306.767 237.07C309.281 236.473 312.427 234.891 312.427 232.465V231.92H313.693V232.518C313.693 232.904 313.623 233.273 313.517 233.625C314.607 235.119 317.297 236.473 319.283 237L318.896 238.072C316.593 237.352 314.22 236.174 312.972 234.68C311.759 236.42 309.263 237.633 307.189 238.125L306.767 237.07ZM305.818 240.691V239.602H320.302V240.691H313.869V244.207H312.603V240.691H305.818ZM307.629 247.248V242.748H308.894V245.895H318.843V246.984H308.894V247.248H307.629ZM326.376 233.291C325.163 233.291 323.792 233.783 323.792 235.576C323.792 237.369 325.163 237.861 326.376 237.861H327.29C328.503 237.861 329.874 237.369 329.874 235.576C329.874 233.783 328.503 233.291 327.29 233.291H326.376ZM321.542 242.186V241.096H332.194V242.186H327.431V247.336H326.165V242.186H321.542ZM322.491 235.576C322.491 233.309 324.319 232.236 326.165 232.236H327.501C329.347 232.236 331.175 233.309 331.175 235.576C331.175 237.844 329.347 238.916 327.501 238.916H326.165C324.319 238.916 322.491 237.844 322.491 235.576ZM333.495 247.512V231.639H334.761V247.512H333.495ZM344.543 237.176C344.825 235.875 344.965 234.662 345 233.203H338.127V232.113H346.266C346.231 233.906 346.196 235.541 345.774 237.299L344.543 237.176ZM337.002 239.355V238.266H347.69V239.355H342.856V243.328H341.59V239.355H337.002ZM339.375 247.248V242.572H340.641V245.895H350.467V246.984H340.641V247.248H339.375ZM344.913 241.922V240.832H348.955V231.639H350.221V243.662H348.955V241.922H344.913ZM359.582 236.262C359.582 234.416 358.879 233.291 357.103 233.291C355.328 233.291 354.625 234.416 354.625 236.262V240.023C354.625 241.869 355.328 242.994 357.103 242.994C358.879 242.994 359.582 241.869 359.582 240.023V236.262ZM353.359 240.164V236.121C353.359 233.66 354.748 232.201 357.103 232.201C359.459 232.201 360.847 233.66 360.847 236.121V240.164C360.847 242.625 359.459 244.084 357.103 244.084C354.748 244.084 353.359 242.625 353.359 240.164ZM364.416 247.512V231.639H365.681V247.512H364.416ZM373.1 237.123V231.955H374.366V236.033H384.262V237.123H379.129V239.127H385.739V240.217H371.254V239.127H377.864V237.123H373.1ZM372.643 246.984V245.895H375.016L374.893 243.205H372.854V242.115H384.122V243.205H382.047L381.959 245.895H384.333V246.984H372.643ZM376.141 243.205L376.211 245.895H380.729L380.834 243.205H376.141ZM393.746 236.262C393.746 234.416 393.043 233.291 391.355 233.291C389.668 233.291 388.965 234.416 388.965 236.262V240.023C388.965 241.869 389.668 242.994 391.355 242.994C393.043 242.994 393.746 241.869 393.746 240.023V236.262ZM387.699 240.164V236.121C387.699 233.66 389.088 232.201 391.355 232.201C393.623 232.201 395.012 233.66 395.012 236.121V240.164C395.012 242.625 393.623 244.084 391.355 244.084C389.088 244.084 387.699 242.625 387.699 240.164ZM397.965 247.512V231.639H399.23V237.686H401.515V238.775H399.23V247.512H397.965ZM402.439 238.775C405.409 237.527 408.275 235.242 409.189 233.361H403.159V232.271H410.577V233.15C410.208 234.17 409.47 235.189 408.486 236.174C409.417 237.035 410.929 238.002 412.441 238.652L411.913 239.689C410.103 238.863 408.468 237.756 407.589 236.982C406.341 238.037 404.777 239.004 403.071 239.795L402.439 238.775ZM405.269 247.248V241.289H406.534V242.994H414.392V241.289H415.657V247.248H414.392V246.984H406.534V247.248H405.269ZM406.534 245.895H414.392V244.084H406.534V245.895ZM414.392 240.059V231.639H415.657V240.059H414.392ZM418.919 243.398V232.623H420.184V242.309H427.18V243.398H418.919ZM429.852 247.512V231.639H431.118V247.512H429.852ZM434.062 243.504V232.799H441.797V233.889H435.328V242.414H442.236V243.504H434.062ZM444.346 247.512V231.639H445.611V237.686H447.896V238.775H445.611V247.512H444.346ZM450.085 245.701C449.593 245.701 449.206 245.297 449.206 244.805C449.206 244.312 449.593 243.908 450.085 243.908C450.613 243.908 450.999 244.312 450.999 244.805C450.999 245.297 450.613 245.701 450.085 245.701ZM104.103 269.021C107.179 267.633 109.64 265.559 110.73 263.871H104.806V262.781H108.076V261.129H109.341V262.781H112.207V263.607C111.75 264.539 111.011 265.523 109.992 266.49C110.941 267.299 112.365 268.178 113.736 268.846L113.191 269.865C111.679 269.109 109.992 268.002 109.13 267.264C107.918 268.248 106.423 269.197 104.683 270.023L104.103 269.021ZM106.564 277.248V271.465H116.513V277.248H115.248V276.984H107.83V277.248H106.564ZM107.83 275.895H115.248V272.555H107.83V275.895ZM115.248 270.234V261.639H116.513V265.137H118.798V266.227H116.513V270.234H115.248ZM126.665 266.262C126.665 264.416 125.962 263.291 124.274 263.291C122.587 263.291 121.884 264.416 121.884 266.262V270.023C121.884 271.869 122.587 272.994 124.274 272.994C125.962 272.994 126.665 271.869 126.665 270.023V266.262ZM120.618 270.164V266.121C120.618 263.66 122.007 262.201 124.274 262.201C126.542 262.201 127.931 263.66 127.931 266.121V270.164C127.931 272.625 126.542 274.084 124.274 274.084C122.007 274.084 120.618 272.625 120.618 270.164ZM128.862 270.99V269.9H131.675V266.174H128.862V265.084H131.675V261.639H132.94V277.512H131.675V270.99H128.862ZM139.111 272.889C142.31 271.711 145.791 268.951 146.142 263.889H139.463V262.799H147.39C147.513 268.635 143.875 272.361 139.691 273.943L139.111 272.889ZM150.73 277.512V261.639H151.996V277.512H150.73ZM164.151 264.627H154.817V263.537H158.878V261.762H160.144V263.537H164.151V264.627ZM153.974 275.174V274.084H158.86V271.834H158.597C156.979 271.834 155.468 270.621 155.468 268.793C155.468 266.965 156.979 265.752 158.597 265.752H160.39C161.989 265.752 163.519 266.877 163.519 268.793C163.519 270.621 161.972 271.834 160.39 271.834H160.126V274.084H164.89V275.174H153.974ZM156.733 268.793C156.733 270.217 157.753 270.779 158.878 270.779H160.108C161.198 270.779 162.253 270.199 162.253 268.793C162.253 267.404 161.198 266.807 160.108 266.807H158.878C157.788 266.807 156.733 267.404 156.733 268.793ZM166.19 277.512V261.639H167.456V277.512H166.19ZM171.28 267.826V262.113H172.545V266.736H182.442V267.826H171.28ZM169.434 271.043V269.953H183.918V271.043H169.434ZM171.244 277.248V272.748H172.51V275.895H182.459V276.984H172.51V277.248H171.244ZM239.872 263.783C238.219 263.783 236.848 264.645 236.848 266.684C236.848 268.723 238.219 269.584 239.872 269.584H242.965C244.618 269.584 245.989 268.723 245.989 266.684C245.989 264.645 244.618 263.783 242.965 263.783H239.872ZM234.176 275.438V274.348H248.661V275.438H234.176ZM235.583 266.684C235.583 264.223 237.305 262.693 239.731 262.693H243.106C245.532 262.693 247.254 264.223 247.254 266.684C247.254 269.145 245.532 270.674 243.106 270.674H239.731C237.305 270.674 235.583 269.145 235.583 266.684ZM262.346 262.658V267.492H252.678V270.217H262.68V271.307H257.529V274.523H264.121V275.613H249.637V274.523H256.264V271.307H251.412V266.402H261.08V263.748H251.289V262.658H262.346ZM268.622 272.994C271.206 270.779 273.333 267.334 274.018 263.889H269.413V262.799H275.284V263.607C274.985 265.189 274.493 266.684 273.842 268.072C274.422 269.953 275.917 272.027 276.971 273.029L276.057 273.803C274.932 272.66 273.737 270.902 273.104 269.426C272.172 271.008 270.977 272.467 269.465 273.803L268.622 272.994ZM275.653 268.266V267.176H278.131V261.814H279.397V277.248H278.131V268.266H275.653ZM281.085 277.512V261.639H282.35V277.512H281.085ZM293.521 264.205H284.398V263.115H288.301V261.428H289.566V263.115H293.521V264.205ZM285.049 268.301C285.049 266.508 286.525 265.33 288.143 265.33H289.795C291.395 265.33 292.889 266.42 292.889 268.301C292.889 270.094 291.377 271.271 289.795 271.271H288.143C286.525 271.271 285.049 270.094 285.049 268.301ZM286.314 268.301C286.314 269.689 287.299 270.182 288.424 270.182H289.514C290.603 270.182 291.623 269.672 291.623 268.301C291.623 266.947 290.603 266.42 289.514 266.42H288.424C287.334 266.42 286.314 266.947 286.314 268.301ZM286.701 277.248V272.854H287.967V275.895H296.984V276.984H287.967V277.248H286.701ZM295.402 273.047V261.639H296.668V266.016H298.953V267.105H296.668V273.047H295.402ZM309.404 270.586H305.765V274.084H310.529V275.174H299.613V274.084H304.499V270.586H300.966V262.852H309.21V263.941H302.232V269.496H309.404V270.586ZM311.829 277.512V261.639H313.095V277.512H311.829ZM316.216 273.504V262.799H323.581V273.504H316.216ZM317.481 272.414H322.315V263.889H317.481V272.414ZM324.477 270.99V269.9H327.29V266.174H324.477V265.084H327.29V261.639H328.555V277.512H327.29V270.99H324.477ZM331.518 277.072C331.904 276.598 332.133 276.158 332.256 275.701C331.799 275.684 331.412 275.332 331.412 274.805C331.412 274.295 331.781 273.908 332.309 273.908C332.854 273.908 333.205 274.225 333.258 274.805C333.328 275.596 332.924 276.65 332.186 277.564L331.518 277.072ZM478.897 264.029H469.774V262.939H473.676V261.252H474.942V262.939H478.897V264.029ZM470.424 267.738C470.424 266.068 471.883 265.049 473.5 265.049H475.188C476.787 265.049 478.264 265.98 478.264 267.738C478.264 269.408 476.77 270.428 475.188 270.428H473.5C471.883 270.428 470.424 269.408 470.424 267.738ZM471.69 267.738C471.69 268.934 472.657 269.338 473.782 269.338H474.907C475.996 269.338 476.998 268.916 476.998 267.738C476.998 266.578 475.996 266.139 474.907 266.139H473.782C472.692 266.139 471.69 266.578 471.69 267.738ZM472.094 277.248V271.816H473.36V273.293H480.778V271.816H482.043V277.248H480.778V276.984H473.36V277.248H472.094ZM473.36 275.895H480.778V274.383H473.36V275.895ZM480.778 270.586V261.639H482.043V265.488H484.328V266.578H482.043V270.586H480.778ZM486.271 273.398V262.623H487.537V272.309H494.533V273.398H486.271ZM497.205 277.512V261.639H498.47V277.512H497.205ZM501.415 273.504V262.799H509.15V263.889H502.681V272.414H509.589V273.504H501.415ZM511.698 277.512V261.639H512.964V267.686H515.249V268.775H512.964V277.512H511.698ZM517.438 275.701C516.946 275.701 516.559 275.297 516.559 274.805C516.559 274.312 516.946 273.908 517.438 273.908C517.965 273.908 518.352 274.312 518.352 274.805C518.352 275.297 517.965 275.701 517.438 275.701Z" fill="black"/>
<path d="M189.456 266.824C193.517 266.051 196.698 264.943 198.562 263.713H190.511V262.623H195.099V261.129H196.347V262.623H200.618V263.537C199.898 264.223 198.843 264.926 197.437 265.576C198.667 266.016 200.073 266.314 201.972 266.613L201.603 267.65C199.704 267.404 197.489 266.736 196.118 266.139C194.413 266.807 192.339 267.404 189.896 267.879L189.456 266.824ZM188.489 270.252V269.162H195.099V267.422H196.364V269.162H202.974V270.252H188.489ZM190.054 274.541C190.054 272.643 191.53 271.746 193.077 271.746H198.368C199.915 271.746 201.392 272.643 201.392 274.541C201.392 276.422 199.968 277.318 198.368 277.318H193.077C191.478 277.318 190.054 276.422 190.054 274.541ZM191.319 274.541C191.319 275.684 191.952 276.246 193.341 276.246H198.105C199.493 276.246 200.126 275.684 200.126 274.541C200.126 273.416 199.476 272.818 198.105 272.818H193.341C191.97 272.818 191.319 273.416 191.319 274.541ZM209.144 268.898L209.513 262.377H216.123V263.467H210.744L210.48 267.703C211.096 267.545 211.746 267.457 212.256 267.457C214.963 267.457 216.633 269.092 216.633 271.289V271.869C216.633 274.066 214.787 275.701 212.256 275.701C210.498 275.701 209.039 275.244 208.301 274.207L209.215 273.416C209.83 274.137 210.709 274.611 212.256 274.611C214.224 274.611 215.367 273.381 215.367 271.834V271.324C215.367 269.777 214.383 268.547 212.256 268.547C211.64 268.547 210.902 268.67 210.111 268.898H209.144ZM227.224 262.289V270.059H219.859V262.289H221.124V265.049H225.958V262.289H227.224ZM221.124 268.969H225.958V266.139H221.124V268.969ZM221.775 277.248V271.975H223.04V275.895H232.444V276.984H223.04V277.248H221.775ZM228.12 266.525V265.436H230.933V261.639H232.198V272.607H230.933V266.525H228.12ZM339.675 266.508C344.104 265.717 347.163 264.398 348.956 263.115H340.553V262.025H350.696V263.062C349.905 263.766 348.903 264.469 347.655 265.137C348.903 265.523 350.555 265.928 352.19 266.279L351.821 267.352C349.782 266.912 347.585 266.244 346.319 265.77C344.632 266.49 342.575 267.123 340.044 267.58L339.675 266.508ZM338.655 269.707V268.617H353.139V269.707H346.53V271.746H348.534C350.081 271.746 351.557 272.643 351.557 274.541C351.557 276.422 350.134 277.318 348.534 277.318H343.243C341.643 277.318 340.219 276.422 340.219 274.541C340.219 272.643 341.696 271.746 343.243 271.746H345.264V269.707H338.655ZM341.485 274.541C341.485 275.684 342.118 276.246 343.507 276.246H348.27C349.659 276.246 350.292 275.684 350.292 274.541C350.292 273.416 349.641 272.818 348.27 272.818H343.507C342.135 272.818 341.485 273.416 341.485 274.541ZM368.6 269.303V270.393H354.115V269.303H360.725V267.439H355.961V261.762H357.227V263.537H365.488V261.762H366.754V267.439H361.99V269.303H368.6ZM355.926 273.363V272.273H366.719V277.248H365.453V273.363H355.926ZM357.227 266.35H365.488V264.627H357.227V266.35ZM373.276 269.021C376.352 267.633 378.813 265.559 379.903 263.871H373.979V262.781H377.249V261.129H378.514V262.781H381.38V263.607C380.923 264.539 380.184 265.523 379.165 266.49C380.114 267.299 381.538 268.178 382.909 268.846L382.364 269.865C380.852 269.109 379.165 268.002 378.304 267.264C377.091 268.248 375.597 269.197 373.856 270.023L373.276 269.021ZM375.737 277.248V271.465H385.686V277.248H384.421V276.984H377.003V277.248H375.737ZM377.003 275.895H384.421V272.555H377.003V275.895ZM384.421 270.234V261.639H385.686V265.137H387.972V266.227H385.686V270.234H384.421ZM395.838 266.262C395.838 264.416 395.135 263.291 393.447 263.291C391.76 263.291 391.057 264.416 391.057 266.262V270.023C391.057 271.869 391.76 272.994 393.447 272.994C395.135 272.994 395.838 271.869 395.838 270.023V266.262ZM389.791 270.164V266.121C389.791 263.66 391.18 262.201 393.447 262.201C395.715 262.201 397.104 263.66 397.104 266.121V270.164C397.104 272.625 395.715 274.084 393.447 274.084C391.18 274.084 389.791 272.625 389.791 270.164ZM398.035 270.99V269.9H400.848V266.174H398.035V265.084H400.848V261.639H402.113V277.512H400.848V270.99H398.035ZM405.937 267.826V262.113H407.203V266.736H417.099V267.826H405.937ZM404.091 271.043V269.953H418.576V271.043H404.091ZM405.902 277.248V272.748H407.168V275.895H417.117V276.984H407.168V277.248H405.902ZM435.785 261.674V266.666H424.992V261.674H426.258V263.045H434.52V261.674H435.785ZM423.147 269.25V268.16H437.631V269.25H431.022V270.92H435.768V274.506H426.276V275.982H436.119V277.072H426.276V277.248H425.01V273.451H434.502V272.01H424.94V270.92H429.756V269.25H423.147ZM426.258 265.576H434.52V264.135H426.258V265.576ZM439.029 272.889C442.052 271.711 445.533 268.951 445.884 263.889H439.381V262.799H447.132C447.256 268.635 443.617 272.361 439.609 273.943L439.029 272.889ZM449.857 277.512V261.639H451.123V267.686H453.408V268.775H451.123V277.512H449.857ZM455.913 267.123V261.955H457.179V266.033H467.075V267.123H455.913ZM454.067 270.023V268.934H468.552V270.023H454.067ZM455.632 274.541C455.632 272.643 457.108 271.746 458.655 271.746H463.946C465.493 271.746 466.97 272.643 466.97 274.541C466.97 276.422 465.546 277.318 463.946 277.318H458.655C457.056 277.318 455.632 276.422 455.632 274.541ZM456.897 274.541C456.897 275.684 457.53 276.246 458.919 276.246H463.683C465.071 276.246 465.704 275.684 465.704 274.541C465.704 273.416 465.054 272.818 463.683 272.818H458.919C457.548 272.818 456.897 273.416 456.897 274.541Z" fill="white"/>
</svg>
