<svg width="168" height="32" viewBox="0 0 168 32" fill="none" xmlns="http://www.w3.org/2000/svg">
<g clip-path="url(#clip0_2255_5459)">
<path d="M167.499 5.83923H164.246V23.494H167.499V5.83923Z" fill="#0078FE"/>
<path d="M158.619 23.494H161.872L155.24 5.83923H151.486L144.854 23.494H148.107L149.646 19.3951H157.079L158.619 23.494ZM153.2 9.93814H153.526L155.895 16.2434H150.832L153.202 9.93814H153.2Z" fill="#0078FE"/>
<path d="M136.243 11.1992C134.042 11.1992 132.986 12.1083 132.507 12.8558C131.967 11.9524 131.024 11.1992 129.387 11.1992C127.749 11.1992 126.868 11.9562 126.32 12.6485V11.513H123.355V22.5468H126.32V15.2144C126.571 14.6343 127.141 13.8772 128.386 13.8772C129.458 13.8772 129.99 14.4117 130.251 14.9329C130.426 15.281 130.498 15.6652 130.498 16.0475V22.5468H133.208V15.0774C133.49 14.5144 134.07 13.8772 135.232 13.8772C136.318 13.8772 136.856 14.4117 137.119 14.9329C137.295 15.281 137.368 15.6652 137.368 16.0475V22.5468H140.109V14.8891C140.109 14.8891 139.726 11.1973 136.245 11.1973L136.243 11.1992Z" fill="black"/>
<path d="M120.386 22.541H117.419V21.3561C116.693 22.2881 116.408 22.8644 114.417 22.8644C112.077 22.8644 109.723 21.0384 109.723 18.0123V11.5149H112.689V17.746C112.676 19.4769 113.62 20.0265 114.867 20.0265C115.941 20.0265 117.419 19.4769 117.419 17.5177V11.5149H120.386V22.541Z" fill="black"/>
<path d="M104.695 14.1778H107.32V11.5149H104.695V8.04749L101.789 8.96237V11.5149H99.8867V14.1778H101.789C101.813 16.0075 101.789 17.9495 101.789 19.2353C101.789 22.3204 104.457 22.5487 104.457 22.5487H107.348V20.0418C107.348 20.0418 106.535 20.0266 105.661 20.019C105.125 20.0132 104.695 19.591 104.695 19.0736V14.1797V14.1778Z" fill="black"/>
<path d="M94.5436 11.2259C92.6234 11.2259 91.5809 11.8744 91.0194 12.6486V11.5131H88.0547V22.5468H91.0194V15.7337C91.0979 15.3894 91.5632 13.8754 93.452 13.8754C95.5763 13.8754 95.753 15.7451 95.753 15.7451V22.5449H98.702V14.8873C98.702 14.8873 98.2897 11.222 94.5436 11.222V11.2259Z" fill="black"/>
<path d="M82.1212 11.5149V12.6504C81.1336 11.7679 79.8496 11.2068 78.4379 11.2068C75.3358 11.2068 72.7422 13.7879 72.7422 16.9719C72.7422 20.1559 75.3338 22.8663 78.4379 22.8663C79.8496 22.8663 81.1356 22.2006 82.1212 21.32V22.5506H85.0878V11.5168H82.1212V11.5149ZM78.8797 20.0266C77.0969 20.0266 75.6499 18.7199 75.6499 16.9909C75.6499 15.2619 77.095 13.8792 78.8797 13.8792C80.6644 13.8792 82.1212 15.2638 82.1212 16.9909C82.1212 18.718 80.6624 20.0266 78.8797 20.0266Z" fill="black"/>
<path d="M70.6044 22.541H67.6378V21.3561C66.9114 22.2881 66.6267 22.8644 64.6358 22.8644C62.2955 22.8644 59.9414 21.0384 59.9414 18.0123V11.5149H62.908V17.746C62.8943 19.4769 63.8387 20.0265 65.0854 20.0265C66.1594 20.0265 67.6378 19.4769 67.6378 17.5177V11.5149H70.6044V22.541Z" fill="black"/>
<path d="M58.2284 21.4987L56.0491 19.3875C57.0072 18.0541 57.5687 16.4279 57.5687 14.6666C57.5687 10.1245 53.8089 6.43835 49.0988 6.43835C44.3886 6.43835 40.6504 10.1245 40.6504 14.6666C40.6504 19.2087 44.3867 22.8948 49.0988 22.8948C50.8226 22.8948 52.4188 22.4022 53.75 21.5558L55.9607 23.6975L58.2304 21.4987H58.2284ZM49.0988 19.9543C46.087 19.9543 43.7093 17.5843 43.7093 14.6666C43.7093 11.7489 46.087 9.37892 49.0988 9.37892C52.1106 9.37892 54.5118 11.7489 54.5118 14.6666C54.5118 15.6005 54.2644 16.4754 53.8305 17.2382L51.3782 14.8625L49.1086 17.0613L51.5176 19.3951C50.7912 19.7489 49.9705 19.9543 49.0968 19.9543H49.0988Z" fill="black"/>
<path d="M33.5308 26.64H27.998V32H33.5308V26.64Z" fill="#0078FE"/>
<path d="M26.3326 25.0252L23.3895 22.1741C23.2168 22.3186 23.0342 22.4556 22.8496 22.5887L25.6376 25.6529C25.8752 25.4494 26.1088 25.2421 26.3326 25.0252Z" fill="#0078FE" fill-opacity="0.5"/>
<path d="M22.8487 22.5887C22.6661 22.7199 22.4776 22.8455 22.2832 22.9653L24.9043 26.2387C25.1556 26.0504 25.3991 25.8545 25.6366 25.651L22.8487 22.5868V22.5887Z" fill="#0078FE" fill-opacity="0.51"/>
<path d="M22.2843 22.9672C22.0939 23.0851 21.8956 23.1954 21.6934 23.3L24.1358 26.7827C24.3969 26.6096 24.6541 26.4289 24.9035 26.2406L22.2824 22.9672H22.2843Z" fill="#0078FE" fill-opacity="0.52"/>
<path d="M21.0859 23.593L23.336 27.2772C23.6089 27.1213 23.8759 26.9558 24.137 26.7827L21.6946 23.3C21.4963 23.4028 21.2941 23.5017 21.0879 23.593H21.0859Z" fill="#0078FE" fill-opacity="0.53"/>
<path d="M20.4609 23.8422L22.5009 27.7205C22.7836 27.5797 23.0624 27.4332 23.3334 27.2773L21.0833 23.593C20.8811 23.6824 20.671 23.7642 20.459 23.8422H20.4609Z" fill="#0078FE" fill-opacity="0.54"/>
<path d="M22.5022 27.7204L20.4623 23.8422C20.2542 23.9182 20.0441 23.9905 19.8281 24.0533L21.6403 28.1084C21.9309 27.9867 22.2195 27.8593 22.5022 27.7185V27.7204Z" fill="#0078FE" fill-opacity="0.55"/>
<path d="M19.8295 24.0532C19.6194 24.116 19.4054 24.1692 19.1875 24.2206L20.7582 28.4488C21.0566 28.3442 21.3511 28.232 21.6417 28.1103L19.8295 24.0551V24.0532Z" fill="#0078FE" fill-opacity="0.56"/>
<path d="M18.5391 24.3538L19.8545 28.738C20.1608 28.6524 20.4592 28.5535 20.7577 28.4508L19.187 24.2225C18.9749 24.272 18.759 24.3157 18.541 24.3538H18.5391Z" fill="#0078FE" fill-opacity="0.57"/>
<path d="M17.8906 24.4508L18.9332 28.9662C19.2434 28.8996 19.5516 28.8236 19.854 28.738L18.5385 24.3538C18.3265 24.3918 18.1105 24.4241 17.8906 24.4508Z" fill="#0078FE" fill-opacity="0.58"/>
<path d="M17.8921 24.4508C17.68 24.4755 17.4621 24.4945 17.2441 24.5097L18 29.1374C18.3142 29.0898 18.6264 29.0309 18.9346 28.9643L17.8921 24.4489V24.4508Z" fill="#0078FE" fill-opacity="0.59"/>
<path d="M16.5957 24.5363L17.0551 29.2515C17.3732 29.223 17.6873 29.1849 17.9975 29.1355L17.2416 24.5078C17.0296 24.523 16.8136 24.5306 16.5957 24.5363Z" fill="#0078FE" fill-opacity="0.6"/>
<path d="M16.3124 24.542C16.1927 24.542 16.0709 24.5382 15.9512 24.5344L16.1063 29.3067C16.4243 29.2971 16.7424 29.28 17.0546 29.2515L16.5952 24.5363C16.5009 24.5382 16.4067 24.542 16.3124 24.542Z" fill="#0078FE" fill-opacity="0.61"/>
<path d="M15.3133 24.4983L15.1582 29.3086C15.3172 29.3124 15.4743 29.32 15.6333 29.32C15.7924 29.32 15.9494 29.3124 16.1085 29.3086L15.9534 24.5363C15.7394 24.5287 15.5254 24.5173 15.3133 24.4983Z" fill="#0078FE" fill-opacity="0.62"/>
<path d="M14.6802 24.4222L14.209 29.2534C14.5231 29.282 14.8392 29.2991 15.1573 29.3086L15.3124 24.4983C15.0984 24.4793 14.8883 24.4527 14.6782 24.4222H14.6802Z" fill="#0078FE" fill-opacity="0.63"/>
<path d="M14.6793 24.4223C14.4692 24.3918 14.2591 24.3557 14.0529 24.3138L13.2637 29.1393C13.5758 29.1869 13.89 29.2249 14.2061 29.2554L14.6773 24.4242L14.6793 24.4223Z" fill="#0078FE" fill-opacity="0.64"/>
<path d="M13.4394 24.1674L12.332 28.9662C12.6403 29.0328 12.9505 29.0898 13.2666 29.1393L14.0559 24.3138C13.8478 24.272 13.6436 24.2225 13.4413 24.1674H13.4394Z" fill="#0078FE" fill-opacity="0.65"/>
<path d="M12.8356 23.9867L11.4102 28.738C11.7125 28.8236 12.0208 28.8997 12.331 28.9662L13.4383 24.1674C13.2341 24.1122 13.0339 24.0533 12.8356 23.9867Z" fill="#0078FE" fill-opacity="0.66"/>
<path d="M12.8364 23.9867C12.6361 23.9201 12.4398 23.8517 12.2454 23.7737L10.5078 28.4489C10.8043 28.5535 11.1047 28.6505 11.411 28.7361L12.8364 23.9848V23.9867Z" fill="#0078FE" fill-opacity="0.67"/>
<path d="M11.6708 23.5264L9.62305 28.1103C9.91363 28.232 10.2081 28.3442 10.5066 28.4489L12.2441 23.7736C12.0498 23.6976 11.8593 23.6139 11.6708 23.5264Z" fill="#0078FE" fill-opacity="0.68"/>
<path d="M11.1138 23.2487L8.76172 27.7204C9.04248 27.8592 9.33109 27.9866 9.62364 28.1103L11.6714 23.5264C11.4829 23.4389 11.2964 23.3476 11.1138 23.2487Z" fill="#0078FE" fill-opacity="0.69"/>
<path d="M10.5783 22.9386L7.92969 27.2772C8.2026 27.4331 8.47943 27.5796 8.76215 27.7203L11.1143 23.2486C10.9317 23.1497 10.753 23.0451 10.5783 22.9386Z" fill="#0078FE" fill-opacity="0.7"/>
<path d="M10.5786 22.9387C10.4018 22.8302 10.231 22.718 10.0622 22.6001L7.12695 26.7827C7.38808 26.9558 7.6551 27.1213 7.92801 27.2772L10.5766 22.9387H10.5786Z" fill="#0078FE" fill-opacity="0.71"/>
<path d="M9.56948 22.2311L6.35938 26.2406C6.60872 26.4289 6.86592 26.6096 7.12705 26.7827L10.0623 22.6001C9.89343 22.4821 9.73047 22.3604 9.56948 22.233V22.2311Z" fill="#0078FE" fill-opacity="0.72"/>
<path d="M9.1021 21.8354L5.62891 25.6529C5.86647 25.8564 6.10993 26.0523 6.36124 26.2406L9.57135 22.2311C9.41035 22.1036 9.25524 21.9724 9.10406 21.8354H9.1021Z" fill="#0078FE" fill-opacity="0.73"/>
<path d="M8.65809 21.4171L4.93555 25.0233C5.15937 25.2402 5.39105 25.4513 5.62862 25.6529L9.10181 21.8355C8.95063 21.6986 8.80141 21.5597 8.65809 21.4152V21.4171Z" fill="#0078FE" fill-opacity="0.74"/>
<path d="M8.24527 20.9701L4.28516 24.3519C4.49524 24.5821 4.71121 24.8065 4.93503 25.0233L8.65757 21.4171C8.51425 21.2725 8.37681 21.1223 8.2433 20.9701H8.24527Z" fill="#0078FE" fill-opacity="0.75"/>
<path d="M7.85774 20.5022L3.67773 23.6425C3.87211 23.8859 4.07433 24.1218 4.28441 24.3519L8.24452 20.9701C8.11102 20.8179 7.98143 20.662 7.85774 20.5022Z" fill="#0078FE" fill-opacity="0.76"/>
<path d="M7.85871 20.5021C7.73501 20.3423 7.61918 20.1768 7.5053 20.0114L3.11914 22.8987C3.29781 23.1516 3.48433 23.4008 3.6787 23.6424L7.85871 20.5021Z" fill="#0078FE" fill-opacity="0.77"/>
<path d="M7.18402 19.5017L2.60938 22.1227C2.77037 22.3871 2.94118 22.6458 3.11985 22.8988L7.50601 20.0115C7.3941 19.8441 7.28611 19.6748 7.18402 19.5017Z" fill="#0078FE" fill-opacity="0.78"/>
<path d="M6.89389 18.9728L2.14844 21.3143C2.29373 21.5882 2.44491 21.8583 2.6059 22.1207L7.18054 19.4997C7.07845 19.3266 6.98421 19.1497 6.89389 18.9709V18.9728Z" fill="#0078FE" fill-opacity="0.79"/>
<path d="M6.89404 18.9729C6.80372 18.7941 6.7193 18.6135 6.64077 18.429L1.74609 20.4813C1.87175 20.7628 2.00329 21.0424 2.14858 21.3163L6.89404 18.9748V18.9729Z" fill="#0078FE" fill-opacity="0.8"/>
<path d="M6.42465 17.8716L1.39844 19.6253C1.50642 19.9144 1.62226 20.1997 1.74792 20.4812L6.64259 18.4289C6.56405 18.2463 6.49141 18.0599 6.42465 17.8716Z" fill="#0078FE" fill-opacity="0.81"/>
<path d="M6.2495 17.301L1.10352 18.7504C1.19187 19.0471 1.29396 19.3362 1.39998 19.6253L6.4262 17.8716C6.36141 17.6852 6.30251 17.4931 6.2495 17.301Z" fill="#0078FE" fill-opacity="0.82"/>
<path d="M6.10546 16.7228L0.865234 17.8583C0.933952 18.1588 1.01249 18.4574 1.10084 18.7504L6.24682 17.301C6.19381 17.1108 6.14473 16.9187 6.10546 16.7228Z" fill="#0078FE" fill-opacity="0.83"/>
<path d="M6.10638 16.7228C6.10245 16.7076 6.09853 16.6923 6.09656 16.6771C6.0573 16.5002 6.02196 16.3214 5.99251 16.1407L0.689453 16.9529C0.738537 17.2572 0.799402 17.5597 0.868119 17.8583L6.10834 16.7228H6.10638Z" fill="#0078FE" fill-opacity="0.84"/>
<path d="M5.91657 15.5492L0.568359 16.0399C0.59781 16.3481 0.637077 16.6524 0.688125 16.9529L5.99314 16.1388C5.96173 15.9448 5.9362 15.747 5.91657 15.5492Z" fill="#0078FE" fill-opacity="0.85"/>
<path d="M5.8776 14.9577L0.511719 15.1194C0.521536 15.4275 0.539206 15.7356 0.568656 16.0381L5.91687 15.5492C5.89723 15.3533 5.88545 15.1555 5.87956 14.9558L5.8776 14.9577Z" fill="#0078FE" fill-opacity="0.86"/>
<path d="M5.86981 14.659C5.86981 14.5601 5.87373 14.4612 5.87766 14.3623L0.51178 14.1987C0.507853 14.3528 0.5 14.505 0.5 14.659C0.5 14.8131 0.507853 14.9653 0.51178 15.1193L5.87766 14.9557C5.87373 14.8568 5.86981 14.7579 5.86981 14.659Z" fill="#0078FE" fill-opacity="0.87"/>
<path d="M5.9149 13.7689L0.568656 13.28C0.539206 13.5844 0.521536 13.8906 0.511719 14.1987L5.8776 14.3623C5.88349 14.1626 5.89527 13.9648 5.9149 13.7689Z" fill="#0078FE" fill-opacity="0.88"/>
<path d="M0.568359 13.28L5.9146 13.7689C5.93424 13.5711 5.9578 13.3732 5.99118 13.1792L0.688125 12.3671C0.639041 12.6695 0.599773 12.9738 0.568359 13.28Z" fill="#0078FE" fill-opacity="0.89"/>
<path d="M0.864213 11.4617C0.795495 11.7603 0.736594 12.0608 0.685547 12.367L5.9886 13.1811C6.02001 12.9852 6.06124 12.7912 6.10444 12.5972L0.864213 11.4617Z" fill="#0078FE" fill-opacity="0.9"/>
<path d="M6.2586 12.021L1.10084 10.5697C1.01249 10.8626 0.933952 11.1612 0.865234 11.4618L6.10546 12.5973C6.15062 12.4033 6.20166 12.2112 6.2586 12.0229V12.021Z" fill="#0078FE" fill-opacity="0.91"/>
<path d="M1.10156 10.5696L6.25933 12.0209C6.31626 11.8307 6.37909 11.6405 6.44781 11.456L1.39999 9.6947C1.29201 9.98191 1.19188 10.2729 1.10353 10.5696H1.10156Z" fill="#0078FE" fill-opacity="0.92"/>
<path d="M1.39844 9.69467L6.44625 11.456C6.51497 11.2696 6.59154 11.0851 6.674 10.9044L1.74792 8.83875C1.62226 9.12025 1.50642 9.40555 1.39844 9.69467Z" fill="#0078FE" fill-opacity="0.93"/>
<path d="M2.15054 8.00574C2.00721 8.27773 1.87567 8.55733 1.74805 8.84073L6.67413 10.9064C6.75659 10.7238 6.84495 10.545 6.93722 10.37L2.15054 8.00764V8.00574Z" fill="#0078FE" fill-opacity="0.94"/>
<path d="M7.23158 9.84694L2.60785 7.19739C2.44686 7.46177 2.29568 7.72996 2.15039 8.00385L6.93708 10.3662C7.02936 10.1893 7.12752 10.0162 7.23158 9.84503V9.84694Z" fill="#0078FE" fill-opacity="0.95"/>
<path d="M2.60939 7.19737L7.23311 9.84692C7.33717 9.67573 7.44712 9.50835 7.56099 9.34478L3.1179 6.41943C2.93923 6.67241 2.76842 6.93108 2.60742 7.19547L2.60939 7.19737Z" fill="#0078FE" fill-opacity="0.96"/>
<path d="M3.6787 5.67761C3.48433 5.91917 3.29781 6.16834 3.11914 6.42131L7.56224 9.34666C7.67808 9.18308 7.79981 9.02331 7.92546 8.86734L3.68066 5.67761H3.6787Z" fill="#0078FE" fill-opacity="0.97"/>
<path d="M8.31325 8.40889L4.28246 4.96619C4.07238 5.19633 3.87015 5.43219 3.67578 5.67565L7.92058 8.86538C8.04623 8.70941 8.17582 8.55725 8.31129 8.40889H8.31325Z" fill="#0078FE" fill-opacity="0.98"/>
<path d="M8.73218 7.97526L4.93307 4.2948C4.70924 4.51163 4.49524 4.73798 4.28516 4.96812L8.31595 8.41082C8.45142 8.26247 8.58885 8.11601 8.73414 7.97716L8.73218 7.97526Z" fill="#0078FE" fill-opacity="0.99"/>
<path d="M15.632 0C11.4539 0 7.67054 1.64146 4.93164 4.29291L8.73075 7.97337C10.4978 6.26153 12.9402 5.20019 15.63 5.20019C20.8467 5.20019 25.0738 9.18497 25.0738 14.1018C25.0738 16.7437 23.8526 19.1155 21.9128 20.7456L26.3304 25.0252C29.0693 22.3718 30.7617 18.7066 30.7617 14.6591C30.7656 6.56396 23.99 0 15.632 0Z" fill="#0078FE"/>
</g>
<defs>
<clipPath id="clip0_2255_5459">
<rect width="167" height="32" fill="white" transform="translate(0.5)"/>
</clipPath>
</defs>
</svg>
